HIERARCHY
ROOT Hips
{
  OFFSET -0.127988 91.1697 1.07616
  CHANNELS 6 Xposition Yposition Zposition Zrotation Xrotation Yrotation
  JOINT Spine
  {
    OFFSET 0 10.1816 0.1315
    CHANNELS 6 Xposition Yposition Zposition Zrotation Xrotation Yrotation
    JOINT Spine1
    {
      OFFSET 0 10.0835 -1.0008
      CHANNELS 6 Xposition Yposition Zposition Zrotation Xrotation Yrotation
      JOINT Spine2
      {
        OFFSET 0 9.1 -1.3734
        CHANNELS 6 Xposition Yposition Zposition Zrotation Xrotation Yrotation
        JOINT Neck
        {
          OFFSET 0 16.6717 -2.5162
          CHANNELS 6 Xposition Yposition Zposition Zrotation Xrotation Yrotation
          JOINT Head
          {
            OFFSET 0 9.6179 1.685
            CHANNELS 6 Xposition Yposition Zposition Zrotation Xrotation Yrotation
            JOINT HeadTop_End
            {
              OFFSET 0 17.8152 2.585
              CHANNELS 6 Xposition Yposition Zposition Zrotation Xrotation Yrotation
              End Site
              {
                OFFSET 0 0 0
              }
            }
            JOINT LeftEye
            {
              OFFSET 3.0676 6.4095 9.2836
              CHANNELS 6 Xposition Yposition Zposition Zrotation Xrotation Yrotation
              End Site
              {
                OFFSET 0 0 0
              }
            }
            JOINT RightEye
            {
              OFFSET -3.0676 6.4095 9.2835
              CHANNELS 6 Xposition Yposition Zposition Zrotation Xrotation Yrotation
              End Site
              {
                OFFSET 0 0 0
              }
            }
          }
        }
        JOINT LeftShoulder
        {
          OFFSET 4.5704 10.946 -2.628
          CHANNELS 6 Xposition Yposition Zposition Zrotation Xrotation Yrotation
          JOINT LeftArm
          {
            OFFSET 10.5924 -0.5246 -2.2321
            CHANNELS 6 Xposition Yposition Zposition Zrotation Xrotation Yrotation
            JOINT LeftForeArm
            {
              OFFSET 27.8415 -0.0001 0
              CHANNELS 6 Xposition Yposition Zposition Zrotation Xrotation Yrotation
              JOINT LeftHand
              {
                OFFSET 28.3288 0 0
                CHANNELS 6 Xposition Yposition Zposition Zrotation Xrotation Yrotation
                JOINT LeftHandThumb1
                {
                  OFFSET 2.4661 -1.575 2.6824
                  CHANNELS 6 Xposition Yposition Zposition Zrotation Xrotation Yrotation
                  JOINT LeftHandThumb2
                  {
                    OFFSET 3.2298 -1.8647 1.8647
                    CHANNELS 6 Xposition Yposition Zposition Zrotation Xrotation Yrotation
                    JOINT LeftHandThumb3
                    {
                      OFFSET 2.6526 -1.5315 1.5315
                      CHANNELS 6 Xposition Yposition Zposition Zrotation Xrotation Yrotation
                      End Site
                      {
                        OFFSET 1.9546 -1.1285 1.1285
                      }
                    }
                  }
                }
                JOINT LeftHandIndex1
                {
                  OFFSET 9.1093 -0.5171 2.2601
                  CHANNELS 6 Xposition Yposition Zposition Zrotation Xrotation Yrotation
                  JOINT LeftHandIndex2
                  {
                    OFFSET 3.6764 0 0
                    CHANNELS 6 Xposition Yposition Zposition Zrotation Xrotation Yrotation
                    JOINT LeftHandIndex3
                    {
                      OFFSET 2.8831 0 0
                      CHANNELS 6 Xposition Yposition Zposition Zrotation Xrotation Yrotation
                      End Site
                      {
                        OFFSET 2.3927 0 0
                      }
                    }
                  }
                }
                JOINT LeftHandMiddle1
                {
                  OFFSET 9.5334 0 0
                  CHANNELS 6 Xposition Yposition Zposition Zrotation Xrotation Yrotation
                  JOINT LeftHandMiddle2
                  {
                    OFFSET 3.6982 0 0
                    CHANNELS 6 Xposition Yposition Zposition Zrotation Xrotation Yrotation
                    JOINT LeftHandMiddle3
                    {
                      OFFSET 2.9509 0 0
                      CHANNELS 6 Xposition Yposition Zposition Zrotation Xrotation Yrotation
                      End Site
                      {
                        OFFSET 2.8339 0 0
                      }
                    }
                  }
                }
                JOINT LeftHandRing1
                {
                  OFFSET 9.1045 -0.0439 -1.8651
                  CHANNELS 6 Xposition Yposition Zposition Zrotation Xrotation Yrotation
                  JOINT LeftHandRing2
                  {
                    OFFSET 3.154 0 0
                    CHANNELS 6 Xposition Yposition Zposition Zrotation Xrotation Yrotation
                    JOINT LeftHandRing3
                    {
                      OFFSET 2.9377 0 0
                      CHANNELS 6 Xposition Yposition Zposition Zrotation Xrotation Yrotation
                      End Site
                      {
                        OFFSET 2.6475 0 0
                      }
                    }
                  }
                }
                JOINT LeftHandPinky1
                {
                  OFFSET 8.0778 -0.4887 -3.8061
                  CHANNELS 6 Xposition Yposition Zposition Zrotation Xrotation Yrotation
                  JOINT LeftHandPinky2
                  {
                    OFFSET 3.6 0 0
                    CHANNELS 6 Xposition Yposition Zposition Zrotation Xrotation Yrotation
                    JOINT LeftHandPinky3
                    {
                      OFFSET 2.1142 0 0
                      CHANNELS 6 Xposition Yposition Zposition Zrotation Xrotation Yrotation
                      End Site
                      {
                        OFFSET 1.9757 0 0
                      }
                    }
                  }
                }
              }
            }
          }
        }
        JOINT RightShoulder
        {
          OFFSET -4.57 10.9462 -2.628
          CHANNELS 6 Xposition Yposition Zposition Zrotation Xrotation Yrotation
          JOINT RightArm
          {
            OFFSET -10.5928 -0.5248 -2.2321
            CHANNELS 6 Xposition Yposition Zposition Zrotation Xrotation Yrotation
            JOINT RightForeArm
            {
              OFFSET -27.8415 0 0
              CHANNELS 6 Xposition Yposition Zposition Zrotation Xrotation Yrotation
              JOINT RightHand
              {
                OFFSET -28.3288 0 0.0001
                CHANNELS 6 Xposition Yposition Zposition Zrotation Xrotation Yrotation
                JOINT RightHandPinky1
                {
                  OFFSET -8.0767 -0.4885 -3.806
                  CHANNELS 6 Xposition Yposition Zposition Zrotation Xrotation Yrotation
                  JOINT RightHandPinky2
                  {
                    OFFSET -3.6 0 0.0001
                    CHANNELS 6 Xposition Yposition Zposition Zrotation Xrotation Yrotation
                    JOINT RightHandPinky3
                    {
                      OFFSET -2.1142 0 0
                      CHANNELS 6 Xposition Yposition Zposition Zrotation Xrotation Yrotation
                      End Site
                      {
                        OFFSET -1.9757 0 0
                      }
                    }
                  }
                }
                JOINT RightHandRing1
                {
                  OFFSET -9.1036 -0.0439 -1.8651
                  CHANNELS 6 Xposition Yposition Zposition Zrotation Xrotation Yrotation
                  JOINT RightHandRing2
                  {
                    OFFSET -3.154 0 0
                    CHANNELS 6 Xposition Yposition Zposition Zrotation Xrotation Yrotation
                    JOINT RightHandRing3
                    {
                      OFFSET -2.9377 0 0
                      CHANNELS 6 Xposition Yposition Zposition Zrotation Xrotation Yrotation
                      End Site
                      {
                        OFFSET -2.6475 0 0
                      }
                    }
                  }
                }
                JOINT RightHandMiddle1
                {
                  OFFSET -9.5325 0 0
                  CHANNELS 6 Xposition Yposition Zposition Zrotation Xrotation Yrotation
                  JOINT RightHandMiddle2
                  {
                    OFFSET -3.6982 0 0
                    CHANNELS 6 Xposition Yposition Zposition Zrotation Xrotation Yrotation
                    JOINT RightHandMiddle3
                    {
                      OFFSET -2.9509 0 0
                      CHANNELS 6 Xposition Yposition Zposition Zrotation Xrotation Yrotation
                      End Site
                      {
                        OFFSET -2.8339 0 0.0001
                      }
                    }
                  }
                }
                JOINT RightHandIndex1
                {
                  OFFSET -9.1083 -0.5168 2.2601
                  CHANNELS 6 Xposition Yposition Zposition Zrotation Xrotation Yrotation
                  JOINT RightHandIndex2
                  {
                    OFFSET -3.6764 0 0
                    CHANNELS 6 Xposition Yposition Zposition Zrotation Xrotation Yrotation
                    JOINT RightHandIndex3
                    {
                      OFFSET -2.8831 0 0
                      CHANNELS 6 Xposition Yposition Zposition Zrotation Xrotation Yrotation
                      End Site
                      {
                        OFFSET -2.3927 0 0
                      }
                    }
                  }
                }
                JOINT RightHandThumb1
                {
                  OFFSET -2.4648 -1.5727 2.6826
                  CHANNELS 6 Xposition Yposition Zposition Zrotation Xrotation Yrotation
                  JOINT RightHandThumb2
                  {
                    OFFSET -3.2298 -1.8647 1.8647
                    CHANNELS 6 Xposition Yposition Zposition Zrotation Xrotation Yrotation
                    JOINT RightHandThumb3
                    {
                      OFFSET -2.6526 -1.5314 1.5314
                      CHANNELS 6 Xposition Yposition Zposition Zrotation Xrotation Yrotation
                      End Site
                      {
                        OFFSET -1.9546 -1.1285 1.1285
                      }
                    }
                  }
                }
              }
            }
          }
        }
      }
    }
  }
  JOINT LeftUpLeg
  {
    OFFSET 8.2078 -6.7517 -1.5996
    CHANNELS 6 Xposition Yposition Zposition Zrotation Xrotation Yrotation
    JOINT LeftLeg
    {
      OFFSET 0 -44.3705 0.2846
      CHANNELS 6 Xposition Yposition Zposition Zrotation Xrotation Yrotation
      JOINT LeftFoot
      {
        OFFSET 0 -44.4279 -2.9822
        CHANNELS 6 Xposition Yposition Zposition Zrotation Xrotation Yrotation
        JOINT LeftToeBase
        {
          OFFSET 0 -8.7287 10.7106
          CHANNELS 6 Xposition Yposition Zposition Zrotation Xrotation Yrotation
          End Site
          {
            OFFSET 0 -0.0007 9.2781
          }
        }
      }
    }
  }
  JOINT RightUpLeg
  {
    OFFSET -8.2078 -6.7517 -1.5996
    CHANNELS 6 Xposition Yposition Zposition Zrotation Xrotation Yrotation
    JOINT RightLeg
    {
      OFFSET 0 -44.3705 0.2862
      CHANNELS 6 Xposition Yposition Zposition Zrotation Xrotation Yrotation
      JOINT RightFoot
      {
        OFFSET 0 -44.4277 -2.9838
        CHANNELS 6 Xposition Yposition Zposition Zrotation Xrotation Yrotation
        JOINT RightToeBase
        {
          OFFSET 0 -8.7287 10.7106
          CHANNELS 6 Xposition Yposition Zposition Zrotation Xrotation Yrotation
          End Site
          {
            OFFSET 0 -0.0007 9.2781
          }
        }
      }
    }
  }
}
MOTION
Frames:	4
Frame Time:	0.0333333
6.2758 59.9624 180.7 -2.75168 26.6922 5.13746 0 10.1816 0.1315 0.391212 16.9319 -1.10686 -8.88178e-016 10.0835 -1.0008 0.747946 31.623 -0.555157 1.77636e-015 9.1 -1.3734 0.742535 31.6228 -0.575116 -8.88178e-016 16.6717 -2.5162 -14.2815 -66.0633 -27.2508 0 9.6179 1.685 6.7784 9.88333 10.0997 3.55271e-015 17.8152 2.585 -3.97569e-016 6.36111e-015 1.98785e-016 3.0676 6.4095 9.2836 -3.97569e-016 6.36111e-015 1.98785e-016 -3.0676 6.4095 9.2835 -3.97569e-016 6.36111e-015 1.98785e-016 4.5704 10.946 -2.628 30.9027 -7.51053 -19.0712 10.5924 -0.5246 -2.2321 -42.1863 -49.9802 -55.7373 27.8415 -0.0001 1.42109e-014 11.546 5.67157 -66.2544 28.3288 0 -1.42109e-014 35.3438 -7.99498 -12.3178 2.4661 -1.575 2.6824 -65.3919 -60.1152 -16.0742 3.2298 -1.8647 1.8647 45.5283 -14.3894 32.0021 2.6526 -1.5315 1.5315 30.1771 -0.343928 2.45223 9.1093 -0.5171 2.2601 -69.855 14.902 2.9261 3.6764 0 0 -57.4921 -0.0883041 -8.23709 2.8831 0 -1.42109e-014 -29.5466 -3.42418 -11.6534 9.5334 0 7.10543e-015 -74.0916 -17.1458 4.69176 3.6982 0 -3.55271e-015 -79.8379 -4.45042 5.31795 2.9509 1.06581e-014 0 -33.0525 -0.873625 2.94373 9.1045 -0.0439 -1.8651 -79.9779 -27.4091 4.70888 3.154 2.84217e-014 0 -73.8124 -3.89742 5.18813 2.9377 -7.10543e-015 0 -33.2668 -0.884661 2.96066 8.0778 -0.4887 -3.8061 -73.4914 -16.7965 -13.6031 3.6 2.84217e-014 0 -50.3897 -1.95772 4.1599 2.1142 -1.42109e-014 0 -49.1785 -1.87045 4.08607 -4.57 10.9462 -2.628 -22.4348 5.34016 0.327875 -10.5928 -0.5248 -2.2321 20.9516 -27.4687 51.8573 -27.8415 0 -7.10543e-015 0.539159 3.46959 34.6908 -28.3288 -2.84217e-014 0.0001 -11.2223 -15.347 14.9883 -8.0767 -0.4885 -3.806 56.3521 -40.0044 -4.01565 -3.6 -1.42109e-014 0.0001 62.6765 -7.64242 -15.4153 -2.1142 0 0 16.1826 -0.213766 -1.50352 -9.1036 -0.0439 -1.8651 68.8353 -25.9081 -5.63108 -3.154 -1.42109e-014 3.55271e-015 55.4695 -2.33968 -4.44829 -2.9377 -1.42109e-014 3.55271e-015 30.9537 -0.768661 -2.77553 -9.5325 0 1.06581e-014 68.3223 -16.5203 -5.49482 -3.6982 0 7.10543e-015 57.7708 -2.521 -4.56784 -2.9509 0 3.55271e-015 31.999 -0.820097 -2.86159 -9.1083 -0.5168 2.2601 51.1219 -6.81773 -3.63957 -3.6764 -2.84217e-014 0 57.8018 -8.51787 -12.6515 -2.8831 -7.10543e-015 0 15.2461 -0.176164 0.333811 -2.4648 -1.5727 2.6826 53.2869 -72.0035 -1.3923 -3.2298 -1.8647 1.8647 -15.3358 -18.0457 -10.0657 -2.6526 -1.5314 1.5314 -11.5278 -4.0404 0.765066 8.2078 -6.7517 -1.5996 23.1646 -56.6921 7.54852 -3.55271e-015 -44.3705 0.2846 -178.713 68.4419 178.187 0 -44.4279 -2.9822 -29.4725 -49.8881 -14.7975 3.55271e-015 -8.7287 10.7106 1.01264 -32.8007 -0.163143 -8.2078 -6.7517 -1.5996 -104.469 -54.1808 -112.533 0 -44.3705 0.2862 172.585 71.1136 -163.375 0 -44.4277 -2.9838 -2.60248 -32.084 1.03488 -7.10543e-015 -8.7287 10.7106 -0.0583908 -2.55136 9.66912 
5.83967 61.9109 182.043 -3.86067 27.8859 6.2901 1.77636e-015 10.1816 0.1315 0.33208 16.408 -1.02057 0 10.0835 -1.0008 0.682617 31.2219 -0.562846 0 9.1 -1.3734 0.680414 31.2215 -0.588868 0 16.6717 -2.5162 -13.5651 -65.005 -26.913 0 9.6179 1.685 6.51148 6.51601 11.0307 -8.88178e-016 17.8152 2.585 -4.96962e-017 -6.36111e-015 2.48481e-016 3.0676 6.4095 9.2836 -4.96962e-017 -6.36111e-015 2.48481e-016 -3.0676 6.4095 9.2835 -4.96962e-017 -6.36111e-015 2.48481e-016 4.5704 10.946 -2.628 32.0602 -7.40549 -18.1283 10.5924 -0.5246 -2.2321 -45.4379 -50.8787 -59.4377 27.8415 -0.0001 0 11.7087 9.99886 -65.3518 28.3288 0 -1.42109e-014 32.8411 -7.60326 -11.304 2.4661 -1.575 2.6824 -64.8433 -60.4659 -15.6377 3.2298 -1.8647 1.8647 45.6951 -14.3848 32.0434 2.6526 -1.5315 1.5315 30.3128 -0.413685 2.45983 9.1093 -0.5171 2.2601 -69.8547 14.9008 2.92524 3.6764 0 1.42109e-014 -57.4921 -0.0882944 -8.23709 2.8831 1.42109e-014 0 -29.5466 -3.42338 -11.6533 9.5334 2.84217e-014 0 -74.0915 -17.1469 4.69195 3.6982 0 1.77636e-015 -79.8379 -4.45042 5.31796 2.9509 0 0 -33.0525 -0.873624 2.94373 9.1045 -0.0439 -1.8651 -79.978 -27.41 4.70836 3.154 -2.84217e-014 0 -73.8124 -3.89742 5.18815 2.9377 0 0 -33.2668 -0.884667 2.96065 8.0778 -0.4887 -3.8061 -73.491 -16.798 -13.6019 3.6 -2.84217e-014 0 -50.3897 -1.95772 4.1599 2.1142 1.42109e-014 1.77636e-015 -49.1785 -1.87045 4.08608 -4.57 10.9462 -2.628 -19.7705 6.8052 4.84084 -10.5928 -0.5248 -2.2321 7.2612 -26.0294 47.5524 -27.8415 0 -1.42109e-014 4.18755 -5.68099 26.9854 -28.3288 0 0.0001 -7.67449 -15.525 19.5903 -8.0767 -0.4885 -3.806 57.2082 -40.1868 -3.9292 -3.6 -1.42109e-014 0.0001 62.6765 -7.64243 -15.4153 -2.1142 1.42109e-014 0 16.3618 -0.21849 -1.51971 -9.1036 -0.0439 -1.8651 68.8351 -25.9091 -5.63132 -3.154 1.42109e-014 0 55.3542 -2.33074 -4.44211 -2.9377 -1.42109e-014 -7.10543e-015 30.9537 -0.768647 -2.77553 -9.5325 2.84217e-014 0 68.2834 -16.5179 -5.50227 -3.6982 0 0 57.5472 -2.50317 -4.55654 -2.9509 -1.42109e-014 0 32.086 -0.824443 -2.86853 -9.1083 -0.5168 2.2601 53.3343 -6.95638 -3.58158 -3.6764 0 -7.10543e-015 59.9735 -8.99736 -12.5276 -2.8831 0 0 17.4473 -0.167687 0.136169 -2.4648 -1.5727 2.6826 52.6049 -72.1296 -2.01831 -3.2298 -1.8647 1.8647 -15.5789 -18.13 -10.1418 -2.6526 -1.5314 1.5314 -11.7418 -4.1627 0.741592 8.2078 -6.7517 -1.5996 24.4049 -56.9062 8.00284 7.10543e-015 -44.3705 0.2846 -178.966 71.3367 177.888 0 -44.4279 -2.9822 -27.4127 -46.7059 -12.9174 3.55271e-015 -8.7287 10.7106 1.64714 -34.7311 0.359081 -8.2078 -6.7517 -1.5996 -100.551 -56.1978 -108.424 0 -44.3705 0.2862 168.575 73.335 -161.064 1.42109e-014 -44.4277 -2.9838 -0.60731 -33.544 1.7392 -7.10543e-015 -8.7287 10.7106 -0.0583863 -2.55139 9.66913 
5.32839 63.4865 183.304 -4.39284 28.9345 7.31222 -7.10543e-015 10.1816 0.1315 0.256431 16.0376 -1.07108 0 10.0835 -1.0008 0.790729 30.5569 -0.694172 0 9.1 -1.3734 0.791686 30.5564 -0.727452 0 16.6717 -2.5162 -12.5287 -62.7437 -26.1549 -1.77636e-015 9.6179 1.685 6.3192 3.70973 11.8512 0 17.8152 2.585 1.98785e-016 0 1.98785e-016 3.0676 6.4095 9.2836 1.98785e-016 0 1.98785e-016 -3.0676 6.4095 9.2835 1.98785e-016 0 1.98785e-016 4.5704 10.946 -2.628 31.453 -7.09302 -17.5736 10.5924 -0.5246 -2.2321 -52.6301 -51.0238 -67.3793 27.8415 -0.0001 1.42109e-014 12.8817 16.3525 -64.4457 28.3288 0 0 25.9913 -7.00928 -9.81273 2.4661 -1.575 2.6824 -64.285 -60.8153 -15.1913 3.2298 -1.8647 1.8647 45.862 -14.3801 32.0849 2.6526 -1.5315 1.5315 30.4481 -0.483724 2.46808 9.1093 -0.5171 2.2601 -69.8545 14.8996 2.92435 3.6764 -2.84217e-014 0 -57.4921 -0.0883037 -8.2371 2.8831 -7.10543e-015 0 -29.5466 -3.42221 -11.6532 9.5334 0 -7.10543e-015 -74.0913 -17.1483 4.69249 3.6982 -2.84217e-014 1.77636e-015 -79.8379 -4.45043 5.31796 2.9509 0 3.55271e-015 -33.0525 -0.873608 2.94373 9.1045 -0.0439 -1.8651 -79.9782 -27.4112 4.70761 3.154 0 0 -73.8124 -3.89741 5.18814 2.9377 0 3.55271e-015 -33.2668 -0.884669 2.96065 8.0778 -0.4887 -3.8061 -73.4906 -16.7999 -13.6007 3.6 -2.84217e-014 0 -50.3897 -1.95772 4.15992 2.1142 0 0 -49.1785 -1.87046 4.08609 -4.57 10.9462 -2.628 -19.5625 8.49926 11.1905 -10.5928 -0.5248 -2.2321 -2.28775 -24.116 37.8928 -27.8415 0 0 7.36711 -12.0692 27.0501 -28.3288 -2.84217e-014 0.0001 -6.28863 -15.4788 20.6345 -8.0767 -0.4885 -3.806 57.102 -40.1644 -3.93976 -3.6 0 0.0001 62.6765 -7.64243 -15.4153 -2.1142 1.42109e-014 0 16.541 -0.223267 -1.5359 -9.1036 -0.0439 -1.8651 68.8348 -25.9108 -5.63174 -3.154 0 0 55.2388 -2.32179 -4.4359 -2.9377 0 -3.55271e-015 30.9537 -0.768656 -2.77555 -9.5325 2.84217e-014 0 68.2442 -16.5158 -5.51025 -3.6982 -1.42109e-014 -3.55271e-015 57.3236 -2.4854 -4.5452 -2.9509 0 -3.55271e-015 32.173 -0.828805 -2.87549 -9.1083 -0.5168 2.2601 54.1924 -7.00943 -3.55724 -3.6764 2.84217e-014 0 60.8153 -9.18237 -12.4751 -2.8831 0 0 18.3007 -0.166787 0.0596328 -2.4648 -1.5727 2.6826 52.705 -72.1113 -1.92662 -3.2298 -1.8647 1.8647 -15.5434 -18.1176 -10.1308 -2.6526 -1.5314 1.5314 -11.7106 -4.14481 0.744844 8.2078 -6.7517 -1.5996 25.1509 -57.0307 8.48811 -7.10543e-015 -44.3705 0.2846 -179.45 73.869 177.683 0 -44.4279 -2.9822 -25.7426 -43.9298 -11.3963 3.55271e-015 -8.7287 10.7106 1.79563 -36.3982 0.571132 -8.2078 -6.7517 -1.5996 -97.7041 -58.0259 -104.867 -1.42109e-014 -44.3705 0.2862 165.089 75.0355 -159.594 7.10543e-015 -44.4277 -2.9838 1.57304 -34.8436 2.51985 -7.10543e-015 -8.7287 10.7106 -0.0583873 -2.55141 9.66913 
4.81435 63.9646 184.462 -4.77063 29.9773 8.09587 0 10.1816 0.1315 0.208007 15.5844 -1.12316 3.55271e-015 10.0835 -1.0008 0.984012 29.5907 -0.70329 -1.77636e-015 9.1 -1.3734 0.983764 29.59 -0.743479 -1.77636e-015 16.6717 -2.5162 -11.5439 -59.7882 -25.3694 0 9.6179 1.685 6.18475 1.89007 12.5298 0 17.8152 2.585 1.19271e-015 -6.36111e-015 -0 3.0676 6.4095 9.2836 1.19271e-015 -6.36111e-015 -0 -3.0676 6.4095 9.2835 1.19271e-015 -6.36111e-015 -0 4.5704 10.946 -2.628 29.3256 -6.59868 -17.7823 10.5924 -0.5246 -2.2321 -59.434 -50.6766 -74.3049 27.8415 -0.0001 -1.42109e-014 14.1257 22.7598 -65.2166 28.3288 0 7.10543e-015 18.0927 -6.2514 -7.13847 2.4661 -1.575 2.6824 -63.7168 -61.1636 -14.7344 3.2298 -1.8647 1.8647 46.0289 -14.3754 32.1264 2.6526 -1.5315 1.5315 30.5832 -0.553862 2.47667 9.1093 -0.5171 2.2601 -69.8543 14.8984 2.92344 3.6764 0 1.42109e-014 -57.4921 -0.0883045 -8.23709 2.8831 3.55271e-015 0 -29.5466 -3.4209 -11.653 9.5334 0 0 -74.091 -17.1497 4.69319 3.6982 -2.84217e-014 0 -79.8379 -4.45044 5.31795 2.9509 0 1.77636e-015 -33.0525 -0.873613 2.94373 9.1045 -0.0439 -1.8651 -79.9784 -27.4122 4.7068 3.154 0 0 -73.8124 -3.8974 5.18814 2.9377 0 0 -33.2668 -0.884664 2.96063 8.0778 -0.4887 -3.8061 -73.4902 -16.8022 -13.5997 3.6 2.84217e-014 0 -50.3897 -1.95771 4.15992 2.1142 1.42109e-014 7.10543e-015 -49.1785 -1.87046 4.08609 -4.57 10.9462 -2.628 -20.4082 9.81153 17.7145 -10.5928 -0.5248 -2.2321 -7.44567 -22.2564 25.9603 -27.8415 -2.84217e-014 0 11.8561 -12.9982 34.4724 -28.3288 0 0.0001 -7.3693 -15.3668 18.5704 -8.0767 -0.4885 -3.806 57.1009 -40.1642 -3.93984 -3.6 -1.42109e-014 0.0001 62.6765 -7.64244 -15.4153 -2.1142 0 0 16.7203 -0.228092 -1.55207 -9.1036 -0.0439 -1.8651 68.8345 -25.9127 -5.63227 -3.154 0 1.06581e-014 55.1234 -2.31284 -4.42967 -2.9377 -1.42109e-014 0 30.9537 -0.768655 -2.77554 -9.5325 0 -3.55271e-015 68.205 -16.5138 -5.51851 -3.6982 0 -3.55271e-015 57.0999 -2.46765 -4.53375 -2.9509 0 -1.77636e-015 32.26 -0.833176 -2.88242 -9.1083 -0.5168 2.2601 54.2361 -7.01216 -3.55612 -3.6764 0 0 60.8566 -9.19147 -12.4721 -2.8831 1.42109e-014 0 18.3442 -0.167616 0.0556974 -2.4648 -1.5727 2.6826 52.705 -72.1113 -1.92661 -3.2298 -1.8647 1.8647 -15.5434 -18.1176 -10.1307 -2.6526 -1.5314 1.5314 -11.7106 -4.1448 0.744843 8.2078 -6.7517 -1.5996 26.1879 -57.181 9.22665 0 -44.3705 0.2846 179.966 75.1611 177.439 0 -44.4279 -2.9822 -25.0454 -42.6024 -10.6754 0 -8.7287 10.7106 1.71948 -37.5506 0.5125 -8.2078 -6.7517 -1.5996 -97.3586 -59.8768 -103.376 0 -44.3705 0.2862 164.071 75.3032 -160.939 -7.10543e-015 -44.4277 -2.9838 4.18931 -36.3081 3.46475 -7.10543e-015 -8.7287 10.7106 -0.0583883 -2.55139 9.66913 
